/* XPM */
static char *result[] = {
/* columns rows colors chars-per-pixel */
"64 64 235 2 ",
"   c #1A1E3B",
".  c #171C3B",
"X  c #1D213C",
"o  c #262626",
"O  c #2B2B2B",
"+  c #22263D",
"@  c #252A3D",
"#  c #2A2C3E",
"$  c #2E313F",
"%  c #343434",
"&  c #32343F",
"*  c #3B3B3B",
"=  c #3E2D28",
"-  c #463B39",
";  c #4A332F",
":  c #663E3D",
">  c #42413F",
",  c #554E3C",
"<  c #5C523C",
"1  c #655838",
"2  c #765F2F",
"3  c #796736",
"4  c #6F653D",
"5  c #081445",
"6  c #161E49",
"7  c #0E0E4C",
"8  c #1C294C",
"9  c #1E2441",
"0  c #1B2C51",
"q  c #222541",
"w  c #252A43",
"e  c #2A2D42",
"r  c #242D4A",
"t  c #2A2E4B",
"y  c #2D3243",
"u  c #2B334B",
"i  c #26324D",
"p  c #323543",
"a  c #363944",
"s  c #3B3D43",
"d  c #33394B",
"f  c #393C4C",
"g  c #34354B",
"h  c #252C51",
"j  c #223052",
"k  c #2C3657",
"l  c #333453",
"z  c #3B3D53",
"x  c #373B59",
"c  c #393E69",
"v  c #413F51",
"b  c #3F4045",
"n  c #3D434A",
"m  c #3E4155",
"M  c #444444",
"N  c #484745",
"B  c #4A4945",
"V  c #44454A",
"C  c #4B4B4B",
"Z  c #47484B",
"A  c #554B45",
"S  c #555243",
"D  c #5A5647",
"F  c #4B4B53",
"G  c #434455",
"H  c #4E5057",
"J  c #535353",
"K  c #5C5C5B",
"L  c #555458",
"P  c #674A4A",
"I  c #625D44",
"U  c #655554",
"Y  c #655D5D",
"T  c #695757",
"R  c #674F50",
"E  c #696548",
"W  c #756C47",
"Q  c #7C754A",
"!  c #777247",
"~  c #696851",
"^  c #727151",
"/  c #444865",
"(  c #5D5E62",
")  c #4C6873",
"_  c #626262",
"`  c #6A6B6B",
"'  c #686867",
"]  c #667778",
"[  c #615F60",
"{  c #83672B",
"}  c #967628",
"|  c #967E35",
" . c #84753C",
".. c #A27920",
"X. c #A77F1F",
"o. c #837B4A",
"O. c #BA8A1A",
"+. c #99853C",
"@. c #9F9036",
"#. c #A88926",
"$. c #A68B39",
"%. c #A4943A",
"&. c #B69A37",
"*. c #BC9922",
"=. c #B7A83B",
"-. c #D9990D",
";. c #CA9918",
":. c #C69215",
">. c #D7AB13",
",. c #E6A80A",
"<. c #FEAF02",
"1. c #F2A903",
"2. c #FFB301",
"3. c #FFBB01",
"4. c #FDB30C",
"5. c #FFBB0E",
"6. c #FDBA16",
"7. c #C6A435",
"8. c #D3AE38",
"9. c #D9B737",
"0. c #D1A82A",
"q. c #F1BD28",
"w. c #C09722",
"e. c #FFC300",
"r. c #FFCC01",
"t. c #FFCB0B",
"y. c #FFD301",
"u. c #FFD905",
"i. c #FFC518",
"p. c #FFD418",
"a. c #E8CE0E",
"s. c #FFE601",
"d. c #FFFA00",
"f. c #D9C43A",
"g. c #FEC727",
"h. c #FFDB2B",
"j. c #FFD528",
"k. c #FDCD33",
"l. c #FDCE3B",
"z. c #FED334",
"x. c #FEDC34",
"c. c #FED43C",
"v. c #FFDC3C",
"b. c #F2D030",
"n. c #E8CD3B",
"m. c #FFE82A",
"M. c #FFFC2B",
"N. c #FFE534",
"B. c #FFE43B",
"V. c #FFEB3D",
"C. c #FCEA35",
"Z. c #FFFE35",
"A. c #FFF33C",
"S. c #FFFC3C",
"D. c #FBF138",
"F. c #86814D",
"G. c #928C4D",
"H. c #968947",
"J. c #98914A",
"K. c #9B9752",
"L. c #948C50",
"P. c #A2954D",
"I. c #A79944",
"U. c #A59851",
"Y. c #A6944F",
"T. c #B8A84B",
"R. c #BCB649",
"E. c #B7A754",
"W. c #B8B353",
"Q. c #A9A04F",
"!. c #C8B847",
"~. c #D3B948",
"^. c #CAB756",
"/. c #D8BC57",
"(. c #C2AA4A",
"). c #D6C34A",
"_. c #CCC558",
"`. c #D8C75A",
"'. c #CDC74D",
"]. c #E4C64A",
"[. c #E7D748",
"{. c #FED543",
"}. c #FEDC44",
"|. c #FDDD4C",
" X c #F8D647",
".X c #E3CA56",
"XX c #E5D759",
"oX c #FDDD5D",
"OX c #FADC55",
"+X c #FFE343",
"@X c #FFEC44",
"#X c #FEE24C",
"$X c #FFEC4C",
"%X c #FFF445",
"&X c #FFFF43",
"*X c #FFF44A",
"=X c #FFFE4C",
"-X c #E8E756",
";X c #FEE352",
":X c #FEEA54",
">X c #FFE45D",
",X c #FEEC5B",
"<X c #F3E25C",
"1X c #FFF355",
"2X c #FFFE54",
"3X c #FFF35B",
"4X c #FFFE5B",
"5X c #EEEC4D",
"6X c #FCDF60",
"7X c #EEDC61",
"8X c #FDE462",
"9X c #FEEC63",
"0X c #F1E662",
"qX c #FFF463",
"wX c #FFFD64",
"eX c #FEF269",
"rX c #FFFE6B",
"tX c #FFFF70",
"yX c #DFD460",
"uX c #537981",
"iX c #668C8E",
"pX c #65A5A7",
"aX c #57939C",
"sX c #4FB4CC",
"dX c #66C4C7",
"fX c #65D4D5",
"gX c #5BFFFF",
"hX c #4FFFFF",
"jX c #67EAEA",
"kX c #63FFFF",
"lX c #6BFEFE",
"zX c #6BF3F3",
"xX c #70FFFF",
"cX c #5ACBCE",
"vX c None",
/* pixels */
"vXvXvXvXvXvXvXvXvXvXvXvXvXvXvXvXvXvXvXvXvXvXvXvXvXvXvXO % * M N M M * % O vXvXvXvXvXvXvXvXvXvXvXvXvXvXvXvXvXvXvXvXvXvXvXvXvXvXvX",
"vXvXvXvXvXvXvXvXvXvXvXvXvXvXvXvXvXvXvXvXvXvXo % V C C J C N N M M M C C J J C N * o vXvXvXvXvXvXvXvXvXvXvXvXvXvXvXvXvXvXvXvXvXvX",
"vXvXvXvXvXvXvXvXvXvXvXvXvXvXvXvXvXvXvXvX* C C C V M N N M M M M M M M M M M N V C J C * vXvXvXvXvXvXvXvXvXvXvXvXvXvXvXvXvXvXvXvX",
"vXvXvXvXvXvXvXvXvXvXvXvXvXvXvXvXvXvXM C C N N M M M M M > > v s s s b M M M M M M M N C J M vXvXvXvXvXvXvXvXvXvXvXvXvXvXvXvXvXvX",
"vXvXvXvXvXvXvXvXvXvXvXvXvXvXvXvXM J N > M M M M M p w q r y a s s a y w 8 r a b N M M M M N J M vXvXvXvXvXvXvXvXvXvXvXvXvXvXvXvX",
"vXvXvXvXvXvXvXvXvXvXvXvXvXvX% J C > M M M M y 9 $ B 4 H.&.7.8.9.9.0.7.&.| 3 , y 8 u M M M M M C J * vXvXvXvXvXvXvXvXvXvXvXvXvXvX",
"vXvXvXvXvXvXvXvXvXvXvXvXvXN J M > M > v + w D H.!.{.+XV.V.B.x.z.j.j.j.h.p.j.g.w.} < r 8 s N M M M C C vXvXvXvXvXvXvXvXvXvXvXvXvX",
"vXvXvXvXvXvXvXvXvXvXvXo J N M M M M # @ E R.#X*X@X}.c.c.c.l.l.k.k.k.g.g.g.g.i.p.p.i.*.2 i r M M M M C J o vXvXvXvXvXvXvXvXvXvXvX",
"vXvXvXvXvXvXvXvXvXvXO J N M > M p X I ^.1X=X|. X X{.{.+XB.B.N.N.h.h.h.h.g.i.g.g.6.6.p.t.;.1 8 d M M b N J % vXvXvXvXvXvXvXvXvXvX",
"vXvXvXvXvXvXvXvXvX% J M b M M + a Q.3X2XOX|.}.|.$X%X+Xn.8.&.$.$.$.$.&.0.q.j.p.p.g.6.6.6.r.t.#.s r M M M N J % vXvXvXvXvXvXvXvXvX",
"vXvXvXvXvXvXvXvXO J M M M M X D XX4X>XOXOX#X1X$X~.+.1 M p e w 8 8 w e p M 1 | 0.p.p.i.6.4.6.y.,.< 8 b N M M J O vXvXvXvXvXvXvXvX",
"vXvXvXvXvXvXvXo J N M M * . Q wXwX>XOX;X2X:XT.< y 9 w b b n M V M V M M a e 8 y 1 #.i.t.6.6.4.t.e.2 0 s M M M J o vXvXvXvXvXvXvX",
"vXvXvXvXvXvXvXJ N > M s . L.rXeXoXoX3X4XR.S X w s M M N V M M M M M M M N M N n i 8 , *.y.t.4.4.e.e.} 0 n M M N J vXvXvXvXvXvXvX",
"vXvXvXvXvXvXC C M M b X L.rXeXoX>X4X,XW   w M N M M M M M M N M M N V M M M V M N N u 8 3 6.r.4.4.3.e.} 0 b M M C C vXvXvXvXvXvX",
"vXvXvXvXvX% J M M M . Q rXeX8X8XwXyXM . s N M M M M M M M N M N M N M M N M N M V V B n 8 > >.y.4.<.2.e.{ 8 M M N J % vXvXvXvXvX",
"vXvXvXvXvXJ > > M X D rXeX8X8XrX^.# + N N N M M M M N M M M M M M M M N V N V N M N N N V i u ;.y.4.4.3.3.1 j M M M J vXvXvXvXvX",
"vXvXvXvXM N M M p & 7XrX6X8XrX_.+ # N M M M M M M M M N b f N V M N N N N V V N V N V N N C u i ;.r.4.<.e.1.a d N M N M vXvXvXvX",
"vXvXvXvXJ M b M . E.wX8X8XtXyX# # N M M M M M M N M M w a s s C V V N V M N N N N M N V V N B u i ,.r.<.<.e.O.8 M M M J o vXvXvX",
"vXvXvXM N M M + E wX9X8XrX9Xv + B M M M M M M M M M v H.9.9.S d N M N N M V V N N V V N N N N Z e v 3.e.<.2.3.2 0 N M C M vXvXvX",
"vXvXvXJ M M > @ /.rX6X8XrXQ . M M M M M N M N M M * > B.S.Z.3 5 r r r i N N N C N N Z Z N N Z N N 0 3 r.2.<.e.-.i M M M J vXvXvX",
"vXvX* B b M X W wX8X8XrX^.  s M M M M M M > M N M s 5 I.V.B.7.S +.&.%.4 e a B N N Z N N Z N N N N M 0 ;.r.<.<.3.2 j N M C * vXvX",
"vXvXC > > M @ ^.wX6X9XeXS @ M M M N M M N v e + @ b S 8.V.c.v.N.N.m.m.m.&.p d B Z N N Z N N Z Z N C i , 3.3.2.e.-.i n M M C vXvX",
"vXo J v M e D ,X9XoXrXE.. N M M M M M N s a E H.T.].+X+X{.c.v.z.c.z.k.j.M.0.i n Z N Z Z N C Z C C N C 0 O.r.2.2.2.< u M N C o vX",
"vX* C M N   K.wXoX8XeXI @ N M M M M > v p T.2X=X*X$X+X X{.c.c.v.z.z.k.j.h.m. .i B C N Z C Z C N C N C k 1 e.2.2.e...0 N M C * vX",
"vXN N M v % /.qX8XwX/.e s M M M M M N a , :X1X|.|.}.}.}.@X%XA.B.B.N.k.k.k.m.0.d n C C Z C Z N C C C C C d -.e.2.e.-.a b M M N vX",
"vXC M M p S oX>XoXwXL.X M M N M M M N s v ).1X|.|.|.}.$X[.7.+.4 I 9.C.z.j.h.j.S n C C C C C C C C C C C j } r.2.2.2., d M M C vX",
"o C M M q Q qXoX>X9XI e M M V M M N N M w T.2X#X;X|.$XI.p y 8 y 6 , x.x.j.N.h.D n C C C C C C C C C C C m < e.3.2.3.{ j M M C o ",
"O C M M + J.wX>X9XXXM a M M N M M M M M + F.4X;XOX$X Xy r N N C V r 8.D.x.m.b.C Z C J C J C C J C C C C m Z 1.e.2.r...j M M J O ",
"* C M M @ E.qXoXqX^.y M M M M M M M N M e E 3X;X#X$X|.N y Z V d 6 v n.C.x.M.=.i C C J C C C C C C C J C C d ;.r.2.e.:.u M M N % ",
"s N M b & ^.qXoXwXE.+ M M M N M N M M M a N OX1X;X;X=XH.5 r s B 4 f.S.B.A.n.M z J J C J J J J J J C J C C k *.y.2.e.-.d b b N * ",
"* M M s * /.qXoXwXY.+ M M M N M M M M N V y ^.2X;X;X$X#XI.I.).v.S.%XB.V.Z.J.f l G J C J J J J C J J C J F k #.y.3.e.-.s s > M b ",
"N M M s * /.9XoXwXK.+ N M M M M V M N V N 9 P.4X;X;XOX$X=X=X%X@X@X@X@XA.B.C.D.=.n m J J C J J C J C J J J j #.y.3.e.,.b n M > M ",
"M M M * - `.,XoXwXK.X M M N M M M M M N N w Q 4X:X;X:X;X#X#X#X*X&X&X&X&X%XA.S.M.f.m F J J J J J J J J J H k @.u.3.e.,.s s M > M ",
"- M M * s /.9XoXwXU.+ M V M M M M N V V N p D :X3X:X;X;X#X*X=X*X[.R.J.!.S.S.A.A.M.%.k J L J J J J J J J H k #.s.3.e.,.b f M b > ",
"* N M v $ ^.qXoXqXE.+ N M M M N M N N N N s s .X4X;X:X;X2X'.Q E C d h h !.S.S.A.Z.C.F H L J L K J J K J L m *.u.e.r.-.d b > M * ",
"% C M M # E.qXoXqX^.y b N M M V M V N V N V w W.4X,X:X1X[.a 6 f F H J l ~ &XS.S.S.Z.Q x K L K J K K J K L m >.u.e.r.O.i b M C % ",
"O J M M + P.qXoX,X.XM s M M M M N V N M N N q G.wX,X;X2X).d F J J J J j E &X&XS.Z.Z.G.x K L K K K K L L L H a.u.e.y.X.j M > C O ",
"o J M M + o.,XoX8X9XI # M M N M M N N V V N e ~ 4X3X,X3X:XS u F z l l m '.&X&X&XS.Z.F.m K K K K K K K K / ! s.u.r.r.{ i M M J o ",
"vXF M M $ S oX>XoXwXG.  V N M N V N N M N N s N <X4X:X,X2XW.g C ^ L.W.5X=X&X&X&X&X5XH H K K K ( K ( ( ( c %.d.y.r.e.< u M M C vX",
"vXM M M M & /.qXoXqX/.e M M M M N M N V V N V e _.wX3X:X3X4X-X-X4X2X2X=X=X=X=X&X&Xo.x ~ K K ( [ ~ _ [ [ / o.d.d.s.,.u s M M N vX",
"vX* C M M X P.wXoX8X9XI e M V M M N V N N N N 9 Q.rX3X,X3X4X4X4X2X2X2X2X=X=X=X&XG.x K ( ( [ _ _ _ _ _ _ _ / @.a.>.< i M b B * vX",
"vXo J M M @ I ,X>X>XwXQ.  N M M M Z N V V N N w Q wXqX,X3X4X4X4X4X2X2X2X2X2X'.~ k K K _ Y J U U T T Y ~ ' ( / F m m , M > J O vX",
"vXvXC M M M @ /.3XoX9X9XA r N N M M M M N V N d I wX3X3X4XwX4X4X4X2X2X-XL.~ z m K Y ( _ Y ` ] ] uX] ] ` _ _ K H Z B > > M J vXvX",
"vXvX> C M N X W qXoXoXwX(.9 M M N Z N Z N N V M y `.rXwXwX-X_.K.XX4X2XW.7 v K K K K K P pXlXxXxXlXxXlXfXU _ K J F n n > N * vXvX",
"vXvXvXJ v M b # .XqXoX8XrXW X N M N V N N V N C a C U.K.W C g 7 G.4X4X2XH F K K K _ [ D iXjXjXjXlXxXlXfXR _ K J N M M b J vXvXvX",
"vXvXvXN M > N X E wX>XoXwX<Xs e N V N V N Z N N C s w w g f C f ~ 4X4X'.J H K K K [ _ ' Y ( ' : dXxXxX] Y ' K J M b M N M vXvXvX",
"vXvXvXo J M M M   E.wXoX6XrX`.X y B N M Z Z N Z C N V C C C C J G ^ ~ G H K K K [ [ _ ' ` ` P uXzXxXiXP ` _ L N > M M J o vXvXvX",
"vXvXvXvXM C > N y * <XqXoX8XrX^.+ p C M M N V N V N C C C C C J C n m H K L K K K [ _ ' ` T ' zXxXpXP ` _ K J > M b N N vXvXvXvX",
"vXvXvXvXvXJ N M N X I wX9X>X8XrXW.w e C N N N Z N Z C N C C C J J J J J J K L K ( [ [ ` U U jXlXdXP o.` [ J N b M > J vXvXvXvXvX",
"vXvXvXvXvX* F M M M X o.wX9X8X8XtX`.s X M N N Z Z N N Z C C C C C C J J J J L K K K _ Y P fXlXzXP 1 R P J N b M > J * vXvXvXvXvX",
"vXvXvXvXvXvXC C M M b X P.rX9X8X8XrX0X~   y N N N Z Z N C C C C J C J J J K L K K K Y A pXgXkXkXfXsXsXaX- b > b N C vXvXvXvXvXvX",
"vXvXvXvXvXvXvXJ M M M * . P.rX9X8X8XrXtXE.C X e V N C Z C C C C J C C J J J J J L K U , sXgXgXkXkXgXhXsX= - M N J vXvXvXvXvXvXvX",
"vXvXvXvXvXvXvXO J M M M s   o.wXwX8X8XeXtXeXK.D e q y b N Z C C C J C C Z z l x z L K J ( iX) uXuX) ) b * > M J O vXvXvXvXvXvXvX",
"vXvXvXvXvXvXvXvX% J M M M s . E 0XtX9X8X9XrXtXwX^.F.D b y r w t y r i f n E J.R.H.m J K S - - ; ; = = * M M J % vXvXvXvXvXvXvXvX",
"vXvXvXvXvXvXvXvXvX% J M M M M + * W.rXtX9XeX8XeXwXwX3XXX^.Q.P.J.J.K.T.!.[.%X&XS.Z.H.l C C C N M s M M M M J % vXvXvXvXvXvXvXvXvX",
"vXvXvXvXvXvXvXvXvXvX% J M M M N e X E `.tXtXeX8X9X9X,X3X4X2X2X2X=X=X=X&X%X@X+Xv.Z.f.y V M M b M v - > M J % vXvXvXvXvXvXvXvXvXvX",
"vXvXvXvXvXvXvXvXvXvXvXO J C M M M b X # Q _.wXrXwX9X:X>X;X;X;X;X#X#X#X}.}.+XB.B.Z.+.w M b > b > M M C J O vXvXvXvXvXvXvXvXvXvXvX",
"vXvXvXvXvXvXvXvXvXvXvXvXvXC J * M M N s X # E U.`.,XwX4X4X3X1X*X1X$X$X*X%XV.v.9.+.p * M M M M M M C C vXvXvXvXvXvXvXvXvXvXvXvXvX",
"vXvXvXvXvXvXvXvXvXvXvXvXvXvX* J N M M M N s @ X & D o.K.(./.)..X].].~.7.I.3 < a X s > M > M M N C * vXvXvXvXvXvXvXvXvXvXvXvXvXvX",
"vXvXvXvXvXvXvXvXvXvXvXvXvXvXvXvXN C N M M M M M b $ + X @ & * > > * & @ 9 9 y b M M M M b N J M vXvXvXvXvXvXvXvXvXvXvXvXvXvXvXvX",
"vXvXvXvXvXvXvXvXvXvXvXvXvXvXvXvXvXO N J C M > M M M M > > s * * & a s b M M > M M M M C J N O vXvXvXvXvXvXvXvXvXvXvXvXvXvXvXvXvX",
"vXvXvXvXvXvXvXvXvXvXvXvXvXvXvXvXvXvXvXvX* C C C M > > b M b b b M > M M M b M N C J C * vXvXvXvXvXvXvXvXvXvXvXvXvXvXvXvXvXvXvXvX",
"vXvXvXvXvXvXvXvXvXvXvXvXvXvXvXvXvXvXvXvXvXvXO * N C J Z N M M > > M M N C J C N * O vXvXvXvXvXvXvXvXvXvXvXvXvXvXvXvXvXvXvXvXvXvX",
"vXvXvXvXvXvXvXvXvXvXvXvXvXvXvXvXvXvXvXvXvXvXvXvXvXvXo % * * > b M > > * O o vXvXvXvXvXvXvXvXvXvXvXvXvXvXvXvXvXvXvXvXvXvXvXvXvXvX"
};
