/* XPM */
static char *result[] = {
/* columns rows colors chars-per-pixel */
"32 32 206 2 ",
"   c #1B1F3B",
".  c #1D223D",
"X  c #252525",
"o  c #2B2B2B",
"O  c #3F2D2B",
"+  c #22263E",
"@  c #24293E",
"#  c #292A3E",
"$  c #363636",
"%  c #3D3D3C",
"&  c #3E3737",
"*  c #42302F",
"=  c #43373B",
"-  c #6B3534",
";  c #574D3B",
":  c #64593B",
">  c #6A5F39",
",  c #735E32",
"<  c #7B6A36",
"1  c #00004C",
"2  c #0C1748",
"3  c #1E2443",
"4  c #1D2A4D",
"5  c #1D2C51",
"6  c #232741",
"7  c #242A43",
"8  c #2A2E43",
"9  c #222D4D",
"0  c #282F49",
"q  c #26264B",
"w  c #2E3243",
"e  c #2C334B",
"r  c #26324D",
"t  c #333543",
"y  c #363843",
"u  c #3B3D45",
"i  c #313549",
"p  c #34394C",
"a  c #3A3C4A",
"s  c #272A54",
"d  c #243252",
"f  c #2C3753",
"g  c #2E3955",
"h  c #263458",
"j  c #353954",
"k  c #3B3F56",
"l  c #3A3A59",
"z  c #3E3E65",
"x  c #423E44",
"c  c #3F4046",
"v  c #3E414D",
"b  c #3C4254",
"n  c #3D5963",
"m  c #454545",
"M  c #494644",
"N  c #4A4945",
"B  c #44454D",
"V  c #47484E",
"C  c #4C4C4B",
"Z  c #474843",
"A  c #514F46",
"S  c #545145",
"D  c #5B5543",
"F  c #52524D",
"G  c #5A5B4C",
"H  c #434552",
"J  c #4C4D52",
"K  c #4C4C5C",
"L  c #454858",
"P  c #4F5155",
"I  c #545454",
"U  c #5C5C52",
"Y  c #54555C",
"T  c #5C5C5C",
"R  c #585353",
"E  c #634B49",
"W  c #6A4B49",
"Q  c #635E46",
"!  c #63574B",
"~  c #634D50",
"^  c #645553",
"/  c #675757",
"(  c #6C6443",
")  c #6C6947",
"_  c #6C674B",
"`  c #66634B",
"'  c #736A49",
"]  c #7B6F42",
"[  c #74714C",
"{  c #79734A",
"}  c #666554",
"|  c #494D66",
" . c #4C5064",
".. c #5B5E64",
"X. c #546B6D",
"o. c #467176",
"O. c #636263",
"+. c #656B6B",
"@. c #706C6B",
"#. c #8A6A2A",
"$. c #9A7424",
"%. c #83733C",
"&. c #927D3B",
"*. c #8A7C4C",
"=. c #857B48",
"-. c #BE8F1C",
";. c #BA911F",
":. c #978D39",
">. c #B99428",
",. c #A48C39",
"<. c #B29B3C",
"1. c #B0A43F",
"2. c #C99816",
"3. c #CE8E11",
"4. c #DFB311",
"5. c #D7A514",
"6. c #E2A40E",
"7. c #FFBC03",
"8. c #FCB601",
"9. c #FAAA01",
"0. c #DCAE2F",
"q. c #CCAC39",
"w. c #C7A834",
"e. c #DBB53B",
"r. c #EDB721",
"t. c #FFC400",
"y. c #FFCB00",
"u. c #FFD400",
"i. c #FFDB01",
"p. c #FFD00D",
"a. c #FFCE11",
"s. c #FFE100",
"d. c #FFED0D",
"f. c yellow",
"g. c #FFE019",
"h. c #FBC728",
"j. c #FFD520",
"k. c #E6D83A",
"l. c #F8D73A",
"z. c #EEC937",
"x. c #FFE923",
"c. c #FFF229",
"v. c #FFF928",
"b. c #EEE234",
"n. c #FBE83C",
"m. c #FFFF33",
"M. c #FFFF3B",
"N. c #FFF635",
"B. c #8A824B",
"V. c #80814B",
"C. c #98884A",
"Z. c #999653",
"A. c #968C52",
"S. c #A9994A",
"D. c #A99744",
"F. c #B9A647",
"G. c #BCB14B",
"H. c #BBAC55",
"J. c #B3A955",
"K. c #BAB358",
"L. c #C9B94E",
"P. c #C1BE47",
"I. c #C3AB54",
"U. c #C6B454",
"Y. c #CAB857",
"T. c #D7BB57",
"R. c #D4BC48",
"E. c #C6C54A",
"W. c #D8C947",
"Q. c #DFDE42",
"!. c #CBC659",
"~. c #DAC657",
"^. c #D4D458",
"/. c #E8CA45",
"(. c #F8D844",
"). c #E6D65D",
"_. c #F8D95C",
"`. c #E0D548",
"'. c #FDE747",
"]. c #FFFE42",
"[. c #FFFF4C",
"{. c #FFF540",
"}. c #F9E259",
"|. c #FFF554",
" X c #FFFD54",
".X c #FDF55D",
"XX c #FFFF5C",
"oX c #F2F257",
"OX c #EAE553",
"+X c #FFF463",
"@X c #FFFD65",
"#X c #FFFF6C",
"$X c #FFFF72",
"%X c #6A8D8D",
"&X c #6C908F",
"*X c #659FA0",
"=X c #4EA5BF",
"-X c #65ACAD",
";X c #6AB8B7",
":X c #5ED5DB",
">X c #65CFD0",
",X c #5FE0E6",
"<X c #6EF7F7",
"1X c #6CFFFF",
"2X c #62FFFF",
"3X c None",
/* pixels */
"3X3X3X3X3X3X3X3X3X3X3X3Xo $ = m m % $ o 3X3X3X3X3X3X3X3X3X3X3X3X",
"3X3X3X3X3X3X3X3X3Xo m C J p r 6 0 r p L F m o 3X3X3X3X3X3X3X3X3X",
"3X3X3X3X3X3X3XX C J w 6 m > =.&.&.%.> Z 8 d P C X 3X3X3X3X3X3X3X",
"3X3X3X3X3X3X% I 8 @ ) F./.'.N.N.c.x.j.r.>.> r f R m 3X3X3X3X3X3X",
"3X3X3X3X3Xm J . S U. X[.].(.e.q.w.0.h.g.d.p.2.; 4 P N 3X3X3X3X3X",
"3X3X3X3XN J   =..XXX|.F.] Z y w w u Z < >.a.s.7.#.4 L N 3X3X3X3X",
"3X3X3X% J   A.#X@X~.D 6 6 t u m m c p 9 9 : 5.i.y.$.4 P % 3X3X3X",
"3X3XX I   =.$X#XH.8 6 m m m u m m m m N m 9 f >.u.y.#.5 I X 3X3X",
"3X3XC w S +X$XK.  w M m m c x m m m M m m N p 5 ;.u.7.; g C 3X3X",
"3XX I @ T.$X).6 t M m m 3 ] k.Z 4 i i N N m N p r 6.i.3.r P o 3X",
"3Xm 8 _ @X+XQ + M C t 8 6 D.M.q.w.w.Q e C m M C d : t.t., h m 3X",
"3XC + H.#XU.. m m t Q G./.(.'.m.m.c.h.N a V N C V d 3.i.3.d F 3X",
"o V m _.@X{ 6 m m 3 S. X'.'./.<.q.l.c.,.d C C C N h < u.9.m H o ",
"$ i _ @X}.N t m m 8 { |. XF.6 2 4 z.v.<.s C C C C b S 8.t., g $ ",
"x @ *.@X~.y x m m t A }. XS.2 p ' b.b.N g C F C C L v 6.i.#.d % ",
"m + C.@XY.w x m m m t ~. X'.R.(.].M.k.:.H V I I F P b 2.s.$.5 m ",
"m + C.@XY.w m m m m 6 J.XX'.[.[.Q.W.{.m.F.g I I I I b 2.d.$.9 m ",
"c 7 *.@XT.y u m m m 6 B.@X XG.F H s G.M.m.} L R Y P L 4.s.#.d % ",
"$ i ( +X_.A y m M m t ` .XXXB.1 f j E.M.m.{ L T T | ` i.u., g $ ",
"o V Z _.@X{ 6 m m V c Z ).XXOXZ.K.OX[.M.Q.| Y T O.| { f.y.m H o ",
"3XP + I.#XI.+ m M V m 8 Y.@XXXXX X X XE.T  .~ E E ~ ..:.< p F 3X",
"3Xm w ' @X+XQ + N m N 6 Z.#X.X^.XX X} b K ^ -X>X;X;XO.z j m m 3X",
"3Xo F + T.#X~.6 t N M m C ' G q !.oXb K } / *X-X1X<X/ R m J o 3X",
"3X3XC w D +X#XH.. t V N x w a H G U I T ..+.- %X<X@./ N m N 3X3X",
"3X3XX R . *.@X#XJ.q 6 M C N C F V L I T ..~ %X1X&XW I c I X 3X3X",
"3X3X3X% P . C.#X$X^.G + 6 a m V C C L l K D ,X2X:X=X& C % 3X3X3X",
"3X3X3X3XN V . *.+X$X#XK.[ N y i i v F V._ K X.X.o. .N m 3X3X3X3X",
"3X3X3X3X3XN J . D !.$X$X@X}.~.L.L.W.'.M.l.p x O * M N 3X3X3X3X3X",
"3X3X3X3X3X3Xc I 8 # [ K.}.XXXX X X].{.l.,.w c m I % 3X3X3X3X3X3X",
"3X3X3X3X3X3X3XX F J @ + m ) B.C.C.%.> m w m F N o 3X3X3X3X3X3X3X",
"3X3X3X3X3X3X3X3X3Xo m P v w @ . 3 6 p b I m o 3X3X3X3X3X3X3X3X3X",
"3X3X3X3X3X3X3X3X3X3X3X3Xo $ % m m % % o 3X3X3X3X3X3X3X3X3X3X3X3X"
};
